<?xml version="1.0" encoding="utf-8"?>
<!-- Generator: Adobe Illustrator 24.1.2, SVG Export Plug-In . SVG Version: 6.00 Build 0)  -->
<svg version="1.1" id="Layer_1" xmlns="http://www.w3.org/2000/svg" xmlns:xlink="http://www.w3.org/1999/xlink" x="0px" y="0px"
	 viewBox="0 0 64 64" style="enable-background:new 0 0 64 64;" xml:space="preserve">
<style type="text/css">
	.st0{fill:none;}
	.st1{fill:#1E0E10;}
</style>
<g>
	<path class="st0" d="M30.4,15.8c0.3,0.2,0.4,0.5,0.4,0.8v3.1H34v-3.1c0-0.3,0.2-0.6,0.4-0.8c0.9-0.7,1.5-1.7,1.5-2.9
		c0-2-1.6-3.5-3.5-3.5s-3.5,1.6-3.5,3.5C28.9,14,29.5,15.1,30.4,15.8z"/>
	<path class="st0" d="M22.6,37.2h18.9c1.9,0,3.4-1.5,3.4-3.4c0-1.9-1.5-3.4-3.4-3.4h-4.4H26.9h-4.4c-1.9,0-3.4,1.5-3.4,3.4
		C19.2,35.7,20.7,37.2,22.6,37.2z"/>
	<path class="st0" d="M26.9,28.4H37c1.9,0,3.4-1.5,3.4-3.4s-1.5-3.4-3.4-3.4h-2h-5.2h-2.9c-1.9,0-3.4,1.5-3.4,3.4
		C23.6,26.9,25.1,28.4,26.9,28.4z"/>
	<path class="st0" d="M18.2,45.9h27.6c1.9,0,3.4-1.5,3.4-3.4s-1.5-3.4-3.4-3.4h-4.4H22.6h-4.4c-1.9,0-3.4,1.5-3.4,3.4
		C14.8,44.4,16.3,45.9,18.2,45.9z"/>
	<path class="st0" d="M50.2,47.9h-4.4H18.2h-4.4c-1.9,0-3.4,1.5-3.4,3.4s1.5,3.4,3.4,3.4h36.4c1.9,0,3.4-1.5,3.4-3.4
		C53.6,49.4,52,47.9,50.2,47.9z"/>
	<path class="st1" d="M50.2,45.9H50c0.8-0.9,1.2-2.1,1.2-3.4c0-3-2.4-5.4-5.4-5.4h-0.2c0.8-0.9,1.2-2.1,1.2-3.4c0-3-2.4-5.4-5.4-5.4
		h-0.2c0.8-0.9,1.2-2.1,1.2-3.4c0-3-2.4-5.4-5.4-5.4h-1v-2.6c1.2-1,1.9-2.6,1.9-4.2c0-3.1-2.5-5.5-5.5-5.5c-3.1,0-5.5,2.5-5.5,5.5
		c0,1.6,0.7,3.1,1.9,4.2v2.6h-1.9c-3,0-5.4,2.4-5.4,5.4c0,1.3,0.5,2.4,1.2,3.4h-0.2c-3,0-5.4,2.4-5.4,5.4c0,1.3,0.5,2.4,1.2,3.4
		h-0.2c-3,0-5.4,2.4-5.4,5.4c0,1.3,0.5,2.4,1.2,3.4h-0.2c-3,0-5.4,2.4-5.4,5.4s2.4,5.4,5.4,5.4h36.4c3,0,5.4-2.4,5.4-5.4
		C55.6,48.3,53.1,45.9,50.2,45.9z M32.5,9.3c2,0,3.5,1.6,3.5,3.5c0,1.1-0.6,2.2-1.5,2.9c-0.3,0.2-0.4,0.5-0.4,0.8v3.1h-3.2v-3.1
		c0-0.3-0.2-0.6-0.4-0.8C29.6,15,29,14,29,12.8C28.9,10.9,30.5,9.3,32.5,9.3z M26.9,21.7h2.9H35h2c1.9,0,3.4,1.5,3.4,3.4
		s-1.5,3.4-3.4,3.4H26.9c-1.9,0-3.4-1.5-3.4-3.4C23.6,23.2,25.1,21.7,26.9,21.7z M22.6,30.4H27h10.1h4.4c1.9,0,3.4,1.5,3.4,3.4
		c0,1.9-1.5,3.4-3.4,3.4H22.6c-1.9,0-3.4-1.5-3.4-3.4C19.2,31.9,20.7,30.4,22.6,30.4z M18.2,39.2h4.4h18.9h4.4
		c1.9,0,3.4,1.5,3.4,3.4S47.8,46,45.9,46H18.2c-1.9,0-3.4-1.5-3.4-3.4C14.8,40.7,16.3,39.2,18.2,39.2z M50.2,54.7H13.8
		c-1.9,0-3.4-1.5-3.4-3.4s1.5-3.4,3.4-3.4h4.4h27.6h4.4c1.9,0,3.4,1.5,3.4,3.4C53.6,53.2,52,54.7,50.2,54.7z"/>
</g>
</svg>
