<?xml version="1.0" ?><!DOCTYPE svg  PUBLIC '-//W3C//DTD SVG 1.1//EN'  'http://www.w3.org/Graphics/SVG/1.1/DTD/svg11.dtd'><svg enable-background="new 0 0 64 64" height="64px" id="Layer_1" version="1.1" viewBox="0 0 64 64" width="64px" xml:space="preserve" xmlns="http://www.w3.org/2000/svg" xmlns:xlink="http://www.w3.org/1999/xlink"><path d="M63.536,20.833l-1.193-1.458c-0.062-0.021-0.132-0.067-0.213-0.156c-0.979-1.094-6.498-2.387-8.32-7.749  c-1.754-5.168-4.481-7.843-4.679-8.031c-1.134-0.666-1.895,1.042-2.143,1.729l-0.091,0.267v0.007l-2.893,8.542  c-1.382,4.077-3.996,2.666-3.996,2.666l0.005,0.008c-5.902-2.615-13.182-1.803-18.699,2.716c-5.317,4.353-7.579,10.985-6.487,17.101  c0.005,0.054,0.008,0.094,0.015,0.153c0.36,2.813-1.094,3.487-1.826,3.646l-0.398,0.049l0,0l-10.279,1.32H2.337l-0.675,0.086  c-0.903,0.181-2.237,0.736-0.836,2.447l0.558,0.68c0.358,0.431,1.82,2.034,4.25,2.856c2.822,0.954,2.213,5.04,4.973,8.411  l3.28,4.005c0,0,1.713,1.83,2.919-0.986l4.025-9.422c0.319-0.606,1.291-1.781,3.785-0.881c0.05,0.016,0.082,0.023,0.129,0.037  c5.848,2.464,12.98,1.612,18.408-2.832c5.784-4.735,7.948-12.166,6.115-18.696l0.014,0.003c0,0-1.005-1.943,3.518-2.887l9.546-1.986  C63.243,22.222,64.262,21.72,63.536,20.833z M18.186,46.85c-0.655,1.66-1.752,4.196-2.555,6.023  c-0.973,2.227-1.963,0.769-2.042,0.646c-0.886-1.353-2.137-3.307-2.973-4.826l0,0c-0.728-1.262-1.907-2.277-1.907-2.277  l-0.001-0.003c-0.701-0.475-1.353-0.928-1.844-1.275c-0.008-0.008-0.672-0.633,1.05-0.859c0.001,0,0.001,0,0.003,0  c1.893-0.227,4.746-0.649,6.782-1.32l0.002,0.005c0,0,1.24-0.558,2.147,0.539c0.004,0.006,0.006,0.006,0.012,0.011  c0.227,0.329,0.521,0.693,0.879,1.062l-0.003,0.005C17.735,44.58,18.771,45.395,18.186,46.85z M20.536,42.287  c-4.804-5.867-3.941-14.562,1.795-19.858c-1.237,4.627-2.696,15.573,7.285,24.811C26.147,46.807,22.876,45.146,20.536,42.287z   M34.144,47.113c-2.881-2.997-10.705-12.777-7.349-27.589c1.728-0.733,3.545-1.119,5.354-1.183  c0.059,0.121,4.865,9.947,7.393,26.665C37.847,46.073,36.015,46.774,34.144,47.113z M42.795,42.252  c0.146-3.735-1.103-12.853-7.641-23.709c3.229,0.552,6.242,2.183,8.438,4.864C48.099,28.914,47.614,36.913,42.795,42.252z   M55.686,20.588c-0.024,0.008-0.043,0.016-0.067,0.024h-0.003c-1.391,0.485-3.705,1.31-5.991,2.205  c-0.002,0-0.005,0.002-0.008,0.002c-1.97,0.752-2.824-0.86-2.824-0.86l-0.003,0.006c-0.355-0.558-0.746-1.032-1.124-1.418h0.011  c0,0-1.493-1.256-0.331-3.258c0.011-0.016,0.014-0.024,0.021-0.039c1.401-2.182,2.372-4.511,2.973-6.203l-0.003,0.003  c0,0,0.997-2.445,2.202-0.347c0.646,1.083,1.574,2.738,2.418,4.626c0.859,1.93,2.066,3.244,2.921,4.015  c0.008,0.008,0.006,0.011,0.017,0.019C56.675,20.149,55.926,20.502,55.686,20.588z" fill="#241F20"/></svg>