<?xml version="1.0" encoding="utf-8"?>
<!-- Generator: Adobe Illustrator 24.1.2, SVG Export Plug-In . SVG Version: 6.00 Build 0)  -->
<svg version="1.1" id="Camada_1" xmlns="http://www.w3.org/2000/svg" xmlns:xlink="http://www.w3.org/1999/xlink" x="0px" y="0px"
	 viewBox="0 0 1024 1024" style="enable-background:new 0 0 1024 1024;" xml:space="preserve">
<style type="text/css">
	.st0{display:none;}
	.st1{fill:#FFDD00;}
	.st2{fill:#F7931E;stroke:#F7931E;stroke-width:6;stroke-miterlimit:10;}
	.st3{fill:#FFDD00;stroke:#F7931E;stroke-width:6;stroke-miterlimit:10;}
	.st4{fill:#F7931E;stroke:#F7931E;stroke-width:5.9999;stroke-miterlimit:9.9998;}
	.st5{fill:#F7931E;stroke:#F7931E;stroke-width:5.9999;stroke-miterlimit:9.9999;}
	.st6{fill:none;stroke:#F7931E;stroke-width:6;stroke-miterlimit:10;}
	.st7{fill:#00A887;}
	.st8{fill:#0082CA;}
	.st9{display:inline;fill:none;stroke:#00FF00;stroke-width:8;stroke-miterlimit:10;}
	.st10{display:inline;fill:#00FF00;stroke:#00FF00;stroke-width:8;stroke-miterlimit:10;}
	.st11{display:inline;fill:none;stroke:#00FF00;stroke-width:7.9996;stroke-miterlimit:9.9996;}
	.st12{display:inline;fill:none;stroke:#00FF00;stroke-width:7.9998;stroke-miterlimit:9.9998;}
</style>
<g id="Camada_1_1_" class="st0">
</g>
<circle class="st1" cx="507.5" cy="536.5" r="237"/>
<rect x="425" y="387" class="st2" width="13" height="150"/>
<rect x="565" y="387" class="st2" width="13" height="150"/>
<polyline class="st3" points="473,522 502,551 530.5,522.5 "/>
<rect x="783" y="533" class="st2" width="216" height="36"/>
<rect x="706" y="281" transform="matrix(0.8459 -0.5333 0.5333 0.8459 -34.033 480.1786)" class="st4" width="216" height="36"/>
<rect x="203.5" y="169.5" transform="matrix(0.7071 -0.7071 0.7071 0.7071 -131.3482 237.8979)" class="st5" width="36" height="216"/>
<rect x="484" y="49" class="st2" width="36" height="216"/>
<rect x="19" y="533" class="st2" width="216" height="36"/>
<line class="st6" x1="782.9" y1="447" x2="874.1" y2="412"/>
<line class="st6" x1="232.1" y1="430" x2="140.9" y2="395"/>
<line class="st6" x1="633.4" y1="283.5" x2="675.6" y2="195.5"/>
<line class="st6" x1="393.6" y1="283.5" x2="351.4" y2="195.5"/>
<g id="Camada_5">
	<g>
		<path class="st7" d="M189,456c0,23.2-18.8,42-42,42s-42-18.8-42-42s18.8-42,42-42c8,0,15.5,2.2,21.8,6.1
			C180.9,427.5,189,440.8,189,456z"/>
		<path class="st7" d="M129.3,494.1c0,0,76.7,14.9,95.7,132.9h63c0,0-8-160-121.7-208.3"/>
	</g>
</g>
<g id="Camada_4">
	<path class="st8" d="M202,592l597,4c0,0,17,261-132,293H351C351,889,161,847,202,592"/>
</g>
<g id="Camada_2_cópia" class="st0">
	<circle class="st9" cx="507.5" cy="536.5" r="237"/>
	<rect x="425" y="387" class="st10" width="13" height="150"/>
	<rect x="565" y="387" class="st10" width="13" height="150"/>
	<polyline class="st9" points="473,522 502,551 530.5,522.5 	"/>
	<rect x="783" y="533" class="st9" width="216" height="36"/>
	<rect x="706" y="281" transform="matrix(0.8459 -0.5333 0.5333 0.8459 -34.033 480.1786)" class="st11" width="216" height="36"/>
	
		<rect x="203.5" y="169.5" transform="matrix(0.7071 -0.7071 0.7071 0.7071 -131.3482 237.8979)" class="st12" width="36" height="216"/>
	<rect x="484" y="49" class="st9" width="36" height="216"/>
	<rect x="19" y="533" class="st9" width="216" height="36"/>
	<line class="st9" x1="782.9" y1="447" x2="874.1" y2="412"/>
	<line class="st9" x1="232.1" y1="430" x2="140.9" y2="395"/>
	<line class="st9" x1="633.4" y1="283.5" x2="675.6" y2="195.5"/>
	<line class="st9" x1="393.6" y1="283.5" x2="351.4" y2="195.5"/>
</g>
</svg>
